<svg xmlns="http://www.w3.org/2000/svg" version="1.1" x="0" y="0" width="442.67" height="165.5" viewBox="13.67 40.22 442.67 165.5" enable-background="new 13.667 40.219 442.667 165.5" xml:space="preserve"><path fill="#FFFFFF" stroke="#D8D8D8" stroke-miterlimit="10" d="M19.47 186.33c6.25 0.45 59.76 4.18 103.45 4.18 44.27 0 56.32-3.82 58.62-7.02 0.46-0.64 0.56-1.31 0.32-2.05 -2.08-6.23-5.45-9.38-10.03-9.38 -5.18 0-10.12 4.07-10.17 4.11l-0.82 0.68v-1.07c0-2.69-3.57-3.09-5.69-3.09 -1 0-1.74 0.09-1.74 0.09l-0.34 0.04 -0.16-0.31c-2.14-4.08-5.38-6.15-9.64-6.15 -3.43 0-6.29 1.4-6.32 1.41l-0.56 0.28 -0.52-2.16c-4.27-15.54-18.68-17.22-24.68-17.22 -1.4 0-2.27 0.1-2.28 0.1l-0.32 0.04 -0.17-0.27c-3.06-5.05-6.64-7.61-10.63-7.61 -4.03 0-7.08 2.69-7.11 2.72 -9.46 7.27-5.41 18.84-5.36 18.96l0.56 1.55 -1.33-0.97c-2.39-1.75-4.53-2.64-6.38-2.64 -2.35 0-3.37 1.45-3.41 1.51l-0.42 0.61 -0.41-0.61c-3.24-4.81-7.01-7.24-11.2-7.24 -4.21 0-7.37 2.54-7.4 2.57 -7.57 5.73-6.5 17.73-6.49 17.85l0.06 0.56 -0.57-0.02c-8.2-0.25-14.12 4.35-14.17 4.39l-0.16 0.13 -0.21-0.03c-3.24-0.42-3.92 3.43-3.94 3.58l-0.07 0.4 -0.41 0.02C21.81 184.61 19.93 185.81 19.47 186.33z"/><path fill="#FFFFFF" stroke="#E0E0E0" stroke-miterlimit="10" d="M391.46 160.5c0 0-1.46-11.7-13.12-8.55 0 0-7.76-13.04-16.11-1.75 0 0-18.85-9.75-26.97 10.36 -0.75 1.85 0 2 0 2s-11.5-6-17 4.5c0 0-8-1-8 3.5 0 0-15-12.5-21 5.5s162.71 10.39 162.71 10.39 1.79-7.39-9.71-7.89c0 0-0.54-6.17-4.5-4 -0.72 0.4-2.5 2.5-2.5 2.5s1.59-15.43-12-7c0 0-3.25-15.36-10.04-18.36C413.21 151.7 402.33 146.91 391.46 160.5z"/><path fill="#FFFFFF" stroke="#D8D8D8" stroke-miterlimit="10" d="M226.03 153.16c0 0 6.6-6.72 10.47-7.39 0 0 8.9-2.74 13.42 13.8 0.28 0.72 0.52 1.33 0.33 1.94 0 0 4.04-11.2 16.38-6.64 0 0 10.63 4.29 7.63 16.48 0 0 6.75-0.05 11.75 2.2 0 0 3.72-10.19 14.22-8.85 0 0 14.53 3.35 4.03 15.85 0 0 8.5 0.25 10.5 6.5 0 0 10.38 3.4 7.69 6.73 0 0-22.3 3.15-49.42 2.99 0 0-0.85 0.58-5.52 2.03 -18.52 4.55-38.98-0.55-38.98-0.55s-5.76-1.7-0.76-4.2c0 0-39 8.5-42.25 2l-1.85-0.25c0 0-30.43 4.44-34.43-1.94 0 0-15.31 1.85-19.22-0.31 -1.87-1.03 0-2.25 0-2.25s8.5-7 14-4 -1.5-1.5 10-4c0 0 4.96-14.23 19-10 0 0 6.75-14.5 21.25-13.25 0 0 0.25-7 11-4.25C205.25 155.78 216.05 146.28 226.03 153.16z"/><g enable-background="new    "><path fill="#FFFFFF" d="M192.31 84.15c0 7.15-1.21 14.18-3.63 21.09 -2.42 6.91-5.94 12.95-10.55 18.11 -5.04 5.63-10.92 9.93-17.64 12.92 -6.72 2.99-14.45 4.48-23.2 4.48 -11.91 0-21.24-3.08-27.98-9.23s-10.11-14.62-10.11-25.4c0-7.58 1.29-14.78 3.87-21.62 2.58-6.83 6.27-12.85 11.07-18.05 4.69-5.04 10.49-9.06 17.4-12.07 6.91-3.01 14.45-4.51 22.62-4.51 11.95 0 21.3 3.09 28.04 9.26C188.94 65.31 192.31 73.65 192.31 84.15zM160.14 113.92c2.66-3.48 4.74-7.51 6.24-12.1 1.5-4.59 2.26-9.87 2.26-15.85 0-6.25-1.49-11.14-4.48-14.68 -2.99-3.53-7.26-5.3-12.8-5.3 -3.63 0-7.1 0.83-10.4 2.49 -3.3 1.66-6.34 4.19-9.11 7.59 -2.69 3.24-4.86 7.28-6.5 12.1 -1.64 4.83-2.46 10.25-2.46 16.26 0 6.68 1.53 11.72 4.6 15.12 3.07 3.4 7.31 5.1 12.74 5.1 3.75 0 7.36-0.93 10.84-2.78C154.54 120 157.57 117.36 160.14 113.92z"/><path fill="#FFFFFF" d="M279.32 138.94h-22.72l-2-17.81H222.63l-10.2 17.81h-23.57l52.32-87.25h26.02L279.32 138.94zM252.96 105.48l-3.57-31.15 -17.86 31.15H252.96z"/><path fill="#FFFFFF" d="M377.7 75.83c0 10.39-4.31 18.77-12.92 25.14 -8.61 6.37-20.66 9.55-36.13 9.55h-8.56l-6.56 28.42h-22.61l20.13-87.25h31.36c5.7 0 10.68 0.39 14.92 1.17 4.24 0.78 7.9 2.13 10.99 4.04 3.05 1.91 5.37 4.4 6.98 7.47C376.9 67.44 377.7 71.26 377.7 75.83zM353.68 78c0-3.4-1.23-5.92-3.7-7.56 -2.47-1.64-6.12-2.46-10.98-2.46h-9.1l-6.03 26.13h8.1c6.85 0 12.17-1.4 15.99-4.19C351.77 87.13 353.68 83.16 353.68 78z"/></g></svg>