<?xml version="1.0" encoding="UTF-8" standalone="no"?>
<!-- Generator: Adobe Illustrator 16.0.2, SVG Export Plug-In . SVG Version: 6.00 Build 0)  -->

<svg
   xmlns:dc="http://purl.org/dc/elements/1.1/"
   xmlns:cc="http://creativecommons.org/ns#"
   xmlns:rdf="http://www.w3.org/1999/02/22-rdf-syntax-ns#"
   xmlns:svg="http://www.w3.org/2000/svg"
   xmlns="http://www.w3.org/2000/svg"
   xmlns:sodipodi="http://sodipodi.sourceforge.net/DTD/sodipodi-0.dtd"
   xmlns:inkscape="http://www.inkscape.org/namespaces/inkscape"
   version="1.1"
   id="Layer_1"
   x="0px"
   y="0px"
   width="56.587009"
   height="110.0958"
   viewBox="0 0 56.58701 110.0958"
   enable-background="new 0 0 78.557 152.838"
   xml:space="preserve"
   inkscape:version="0.91 r13725"
   sodipodi:docname="beer.svg"><metadata
     id="metadata4322"><rdf:RDF><cc:Work
         rdf:about=""><dc:format>image/svg+xml</dc:format><dc:type
           rdf:resource="http://purl.org/dc/dcmitype/StillImage" /><dc:title></dc:title></cc:Work></rdf:RDF></metadata><defs
     id="defs4320" /><sodipodi:namedview
     pagecolor="#ffffff"
     bordercolor="#666666"
     borderopacity="1"
     objecttolerance="10"
     gridtolerance="10"
     guidetolerance="10"
     inkscape:pageopacity="0"
     inkscape:pageshadow="2"
     inkscape:window-width="1280"
     inkscape:window-height="741"
     id="namedview4318"
     showgrid="false"
     fit-margin-top="0"
     fit-margin-left="0"
     fit-margin-right="0"
     fit-margin-bottom="0"
     inkscape:zoom="4.8594042"
     inkscape:cx="11.830581"
     inkscape:cy="87.973749"
     inkscape:window-x="0"
     inkscape:window-y="19"
     inkscape:window-maximized="1"
     inkscape:current-layer="Layer_1" /><path
     stroke-miterlimit="10"
     d="M 0,12.052011"
     id="path4306"
     inkscape:connector-curvature="0"
     style="stroke:#000000;stroke-width:0.72034013;stroke-miterlimit:10" /><path
     d="M 9.1903018,110.05766 C 3.9966498,110.30114 13.976242,79.803377 4.9719898,48.828747 1.7643158,37.796017 0.84227981,28.453206 0.98346681,20.996965 1.0454168,17.712214 1.3148228,14.794116 1.6857988,12.258518 2.8376228,4.3895215 4.9712698,0.20578655 4.9712698,0.20578655 l 0.46534,0 46.4619402,0 c 0,0 2.067376,4.17437095 3.17814,12.05201145 1.167672,8.28031 1.278604,20.652872 -3.17814,36.570949 -7.563572,27.01276 -3.55632,53.673273 -3.361107,58.707723 0.119576,3.10467 -1.470215,2.75314 -1.470215,2.75314 l -35.114085,-0.23195 z"
     id="path4308"
     inkscape:connector-curvature="0"
     style="fill:#3d3d3d"
     sodipodi:nodetypes="ccccccccccccc" /><circle
     cx="43.621635"
     cy="14.393118"
     r="1.6207653"
     id="circle4310"
     style="fill:#f6e8bc" /><path
     d="m 55.063004,12.052011 c 0,0 -0.220551,-5.405433 -3.19039,-12.052011 L 4.7637394,0 c 0,0 -2.1049921,4.729753 -3.2981341,12.052731 l 53.5973987,-7.2e-4 z"
     id="path4312"
     inkscape:connector-curvature="0"
     style="fill:#f6e8bc" /><circle
     cx="42.00087"
     cy="19.075327"
     r="1.6207653"
     id="circle4314"
     style="fill:#f6e8bc" /><circle
     cx="45.897911"
     cy="17.454561"
     r="0.65622991"
     id="circle4316"
     style="fill:#f6e8bc" /></svg>