<?xml version="1.0" encoding="UTF-8" standalone="no"?>
<!-- Generator: Adobe Illustrator 16.0.2, SVG Export Plug-In . SVG Version: 6.00 Build 0)  -->

<svg
   xmlns:dc="http://purl.org/dc/elements/1.1/"
   xmlns:cc="http://creativecommons.org/ns#"
   xmlns:rdf="http://www.w3.org/1999/02/22-rdf-syntax-ns#"
   xmlns:svg="http://www.w3.org/2000/svg"
   xmlns="http://www.w3.org/2000/svg"
   xmlns:sodipodi="http://sodipodi.sourceforge.net/DTD/sodipodi-0.dtd"
   xmlns:inkscape="http://www.inkscape.org/namespaces/inkscape"
   version="1.1"
   id="Layer_1"
   x="0px"
   y="0px"
   width="96.799377"
   height="109.69066"
   viewBox="0 0 96.799375 109.69066"
   enable-background="new 0 0 99.288 113.716"
   xml:space="preserve"
   inkscape:version="0.91 r13725"
   sodipodi:docname="fire.svg"><metadata
     id="metadata4190"><rdf:RDF><cc:Work
         rdf:about=""><dc:format>image/svg+xml</dc:format><dc:type
           rdf:resource="http://purl.org/dc/dcmitype/StillImage" /><dc:title></dc:title></cc:Work></rdf:RDF></metadata><defs
     id="defs4188" /><sodipodi:namedview
     pagecolor="#ffffff"
     bordercolor="#3d3d3d"
     borderopacity="1"
     objecttolerance="10"
     gridtolerance="10"
     guidetolerance="10"
     inkscape:pageopacity="0"
     inkscape:pageshadow="2"
     inkscape:window-width="1280"
     inkscape:window-height="741"
     id="namedview4186"
     showgrid="false"
     fit-margin-top="0"
     fit-margin-left="0"
     fit-margin-right="0"
     fit-margin-bottom="0"
     inkscape:zoom="4.7047028"
     inkscape:cx="37.241419"
     inkscape:cy="56.147122"
     inkscape:window-x="0"
     inkscape:window-y="19"
     inkscape:window-maximized="1"
     inkscape:current-layer="Layer_1" /><path
     stroke-miterlimit="10"
     d="m 10.363114,85.025106 c 0,0 -22.040227,-9.274446 -1.8357834,-42.667177 0,0 -1.5669154,16.530909 1.8357834,19.169354 0,0 4.041873,3.401714 3.673535,-6.182963 0,0 0.734707,1.546233 7.34707,8.348675 0,0 -4.259528,-16.70129 10.284914,-34.628733 0,0 -2.937843,10.512417 0,13.913146 0,0 1.837753,-25.044056 35.632307,-42.977408 0,0 -24.244347,25.971795 2.938828,62.456008 0,0 1.101076,-28.135537 0,-34.629717 0,0 6.104175,13.578292 13.469958,21.335065 2.995593,3.154299 5.705345,6.643759 7.87203,10.295822 3.964443,6.682278 6.110752,13.908936 4.86322,20.622935 -2.445412,13.16662 -13.723067,31.348157 -51.428508,29.476917 0,0 4.559911,-1.52358 11.755313,-5.56447 0,0 -14.20565,4.53431 -25.469516,3.70998 0,0 27.429391,-4.94795 30.368219,-22.67448 0,0 -0.736677,2.267152 -7.592301,4.946962 0,0 11.509097,-11.748419 -7.348055,-34.215091 0,0 3.918766,41.636028 -28.651605,26.176647 0,0 -1.469414,12.367897 9.795437,15.459381 9.85e-4,-0.002 -18.6129074,2.05836 -17.510846,-12.370853 z"
     id="path4184"
     inkscape:connector-curvature="0"
     style="fill:#3d3d3d;stroke:none;stroke-miterlimit:10"
     sodipodi:nodetypes="cccccccccccscccccccccc" /></svg>