<?xml version="1.0"?>
<svg width="284" height="100" xmlns="http://www.w3.org/2000/svg">

 <g>
  <title>background</title>
  <rect fill="none" id="canvas_background" height="102" width="286" y="-1" x="-1"/>
 </g>
 <g>
  <title>Layer 1</title>
  <g id="svg_1">
   <path id="svg_2" d="m96.309998,39.150002c0,7.150002 -1.209991,14.18 -3.630005,21.089996c-2.419998,6.910004 -5.939987,12.950005 -10.549988,18.110001c-5.040009,5.629997 -10.919998,9.93 -17.639999,12.920006c-6.720001,2.98999 -14.450012,4.479996 -23.200012,4.479996c-11.909996,0 -21.23999,-3.080002 -27.979996,-9.229996s-10.110001,-14.620003 -10.110001,-25.400002c0,-7.580002 1.290001,-14.780006 3.870003,-21.620003c2.580002,-6.830002 6.269997,-12.849998 11.07,-18.050003c4.690002,-5.039997 10.489998,-9.059998 17.399994,-12.069996c6.910004,-3.010002 14.450012,-4.510002 22.62001,-4.510002c11.949997,0 21.300003,3.09 28.039993,9.260002c6.740005,6.179996 10.110001,14.52 10.110001,25.02zm-32.169998,29.769997c2.660004,-3.479996 4.740005,-7.509995 6.240005,-12.099998c1.5,-4.589996 2.259995,-9.870003 2.259995,-15.849998c0,-6.25 -1.490005,-11.139999 -4.479996,-14.68c-2.990005,-3.529999 -7.26001,-5.300003 -12.800003,-5.300003c-3.630005,0 -7.100006,0.830002 -10.399994,2.490005c-3.300003,1.659996 -6.340012,4.189995 -9.110001,7.589996c-2.690002,3.239998 -4.860008,7.279999 -6.500008,12.099998c-1.639999,4.830002 -2.459999,10.25 -2.459999,16.260002c0,6.68 1.529999,11.720001 4.599998,15.120003c3.07,3.399994 7.310005,5.099998 12.739998,5.099998c3.75,0 7.360001,-0.93 10.840012,-2.779999c3.469986,-1.870003 6.5,-4.510002 9.069992,-7.950005z" fill="#3d3d3d"/>
   <path id="svg_3" d="m183.320007,93.940002l-22.720001,0l-2,-17.810005l-31.970001,0l-10.199997,17.810005l-23.569992,0l52.319992,-87.250004l26.020004,0l12.119995,87.250004zm-26.360001,-33.459999l-3.569992,-31.150002l-17.860001,31.150002l21.429993,0z" fill="#3d3d3d"/>
   <path id="svg_4" d="m281.700012,30.830002c0,10.389999 -4.309998,18.769997 -12.920013,25.139999c-8.609985,6.369995 -20.660004,9.549995 -36.129974,9.549995l-8.560028,0l-6.559998,28.420006l-22.609985,0l20.130005,-87.250004l31.359985,0c5.700012,0 10.679993,0.390003 14.920013,1.170002c4.23999,0.779999 7.899994,2.130001 10.98999,4.040001c3.049988,1.91 5.369995,4.399998 6.980011,7.470001c1.599976,3.07 2.399994,6.889999 2.399994,11.459999zm-24.02002,2.169998c0,-3.400002 -1.230011,-5.919998 -3.700012,-7.559998c-2.470001,-1.639999 -6.119995,-2.459999 -10.97998,-2.459999l-9.100006,0l-6.029999,26.129997l8.100006,0c6.849976,0 12.169983,-1.400002 15.98999,-4.190002c3.809998,-2.790001 5.720001,-6.759995 5.720001,-11.919998z" fill="#3d3d3d"/>
  </g>
 </g>
</svg>