<?xml version="1.0" encoding="utf-8"?>
<!-- Generator: Adobe Illustrator 19.0.0, SVG Export Plug-In . SVG Version: 6.00 Build 0)  -->
<svg version="1.1" id="Layer_1" xmlns="http://www.w3.org/2000/svg" xmlns:xlink="http://www.w3.org/1999/xlink" x="0px" y="0px"
	 viewBox="-354 494.5 442.7 165.5" style="enable-background:new -354 494.5 442.7 165.5;" xml:space="preserve">
<style type="text/css">
	.st0{fill:#FFFFFF;stroke:#D8D8D8;stroke-miterlimit:10;}
	.st1{fill:#FFFFFF;stroke:#E0E0E0;stroke-miterlimit:10;}
	.st2{enable-background:new    ;}
	.st3{fill:#FFFFFF;}
</style>
<path class="st0" d="M-343.9,638.3c6.3,0.5,59.8,4.2,103.4,4.2c44.3,0,56.3-3.8,58.6-7c0.5-0.6,0.6-1.3,0.3-2.1
	c-2.1-6.2-5.4-9.4-10-9.4c-5.2,0-10.1,4.1-10.2,4.1l-0.8,0.7v-1.1c0-2.7-3.6-3.1-5.7-3.1c-1,0-1.7,0.1-1.7,0.1h-0.3l-0.2-0.3
	c-2.1-4.1-5.4-6.1-9.6-6.1c-3.4,0-6.3,1.4-6.3,1.4l-0.5,0.3l-0.5-2.2c-4.3-15.5-18.7-17.2-24.7-17.2c-1.4,0-2.3,0.1-2.3,0.1h-0.3
	l-0.2-0.3c-3.1-5-6.6-7.6-10.6-7.6s-7.1,2.7-7.1,2.7c-9.5,7.3-5.4,18.8-5.4,19l0.6,1.5l-1.3-1c-2.4-1.8-4.5-2.6-6.4-2.6
	c-2.3,0-3.4,1.4-3.4,1.5l-0.4,0.6l-0.4-0.6c-3.2-4.8-7-7.2-11.2-7.2c-4.2,0-7.4,2.5-7.4,2.6c-7.6,5.7-6.5,17.7-6.5,17.9l0.1,0.6
	h-0.6c-8.2-0.3-14.1,4.4-14.2,4.4l-0.2,0.1h-0.2c-3.2-0.4-3.9,3.4-3.9,3.6l-0.1,0.4h-0.4C-341.5,636.6-343.4,637.8-343.9,638.3z"/>
<path class="st1" d="M28.1,612.5c0,0-1.5-11.7-13.1-8.6c0,0-7.8-13-16.1-1.8c0,0-18.9-9.8-27,10.4c-0.8,1.9,0,2,0,2s-11.5-6-17,4.5
	c0,0-8-1-8,3.5c0,0-15-12.5-21,5.5s162.7,10.4,162.7,10.4s1.8-7.4-9.7-7.9c0,0-0.5-6.2-4.5-4c-0.7,0.4-2.5,2.5-2.5,2.5
	s1.6-15.4-12-7c0,0-3.3-15.4-10-18.4C49.9,603.7,39,598.9,28.1,612.5z"/>
<g class="st2">
	<path class="st3" d="M-171,536.1c0,7.2-1.2,14.2-3.6,21.1c-2.4,6.9-5.9,13-10.6,18.1c-5,5.6-10.9,9.9-17.6,12.9
		c-6.7,3-14.4,4.5-23.2,4.5c-11.9,0-21.2-3.1-28-9.2c-6.8-6.1-10.1-14.6-10.1-25.4c0-7.6,1.3-14.8,3.9-21.6
		c2.6-6.8,6.3-12.8,11.1-18.1c4.7-5,10.5-9.1,17.4-12.1s14.4-4.5,22.6-4.5c11.9,0,21.3,3.1,28,9.3C-174.4,517.3-171,525.6-171,536.1
		z M-203.2,565.9c2.7-3.5,4.7-7.5,6.2-12.1c1.5-4.6,2.3-9.9,2.3-15.8c0-6.3-1.5-11.1-4.5-14.7c-3-3.5-7.3-5.3-12.8-5.3
		c-3.6,0-7.1,0.8-10.4,2.5c-3.3,1.7-6.3,4.2-9.1,7.6c-2.7,3.2-4.9,7.3-6.5,12.1c-1.6,4.8-2.5,10.3-2.5,16.3c0,6.7,1.5,11.7,4.6,15.1
		c3.1,3.4,7.3,5.1,12.7,5.1c3.8,0,7.4-0.9,10.8-2.8C-208.8,572-205.8,569.3-203.2,565.9z"/>
	<path class="st3" d="M-84,590.9h-22.7l-2-17.8h-32l-10.2,17.8h-23.6l52.3-87.3h26L-84,590.9z M-110.4,557.5l-3.5-31.2l-17.9,31.2
		H-110.4z"/>
	<path class="st3" d="M14.4,527.8c0,10.4-4.3,18.8-12.9,25.1c-8.6,6.4-20.7,9.5-36.1,9.5h-8.6l-6.6,28.4h-22.6l20.1-87.3h31.4
		c5.7,0,10.7,0.4,14.9,1.2s7.9,2.1,11,4c3,1.9,5.4,4.4,7,7.5C13.6,519.4,14.4,523.2,14.4,527.8z M-9.7,530c0-3.4-1.2-5.9-3.7-7.6
		s-6.1-2.5-11-2.5h-9.1l-6,26.1h8.1c6.9,0,12.2-1.4,16-4.2C-11.6,539.1-9.7,535.1-9.7,530z"/>
</g>
<g>
	<path class="st1" d="M-105.2,625.3c-1.4,0-2.5,0.4-3.5,1.1c-0.9,0.7-1.7,1.8-2.1,3.1h9.1c0-0.2,0.1-0.4,0.1-0.6s0-0.4,0-0.6
		c0-1-0.3-1.7-0.9-2.3C-103.2,625.5-104.1,625.3-105.2,625.3z"/>
	<path class="st1" d="M-48.6,639c-2-6.2-10.5-6.5-10.5-6.5c10.5-12.5-4-15.9-4-15.9c-10.5-1.3-14.2,8.9-14.2,8.9
		c-5-2.3-11.8-2.2-11.8-2.2c3-12.2-7.6-16.5-7.6-16.5c-12.4-4.6-16.4,6.6-16.4,6.6c0.2-0.6,0-1.2-0.3-1.9
		c-4.5-16.5-13.4-13.8-13.4-13.8c-3.9,0.7-10.5,7.4-10.5,7.4c-10-6.8-20.8,2.7-20.8,2.5c-10.7-2.7-11,4.3-11,4.3
		c-14.5-1.2-21.3,13.3-21.3,13.3c-14-4.2-19,10-19,10c-11.5,2.5-4.5,7-10,4s-14,4-14,4s-1.9,1.3,0,2.3c3.9,2.2,19.2,0.3,19.2,0.3
		c4,6.3,34.4,1.9,34.4,1.9l1.9,0.3c3.3,6.5,42.3-2,42.3-2c-5,2.5,0.8,4.2,0.8,4.2s20.5,5.1,39,0.5c4.6-1.4,5.5-2,5.5-2
		c27.1,0.1,49.4-3,49.4-3C-38.2,642.4-48.6,639-48.6,639z M-153,642.7h-20l6.4-27.7h7.2l-5.2,22.4h12.8L-153,642.7z M-142.4,642.7
		h-6.7l4.9-20.9h6.7L-142.4,642.7z M-136.6,618.8h-7.1l1.2-5.1h7.1L-136.6,618.8z M-126.8,638.2c0.4,0.3,1.1,0.4,1.9,0.4
		c0.3,0,0.8-0.1,1.4-0.2s1-0.3,1.3-0.4h0.6l-1,4.5c-0.8,0.2-1.6,0.3-2.4,0.4c-0.8,0.1-1.8,0.2-3,0.2c-2.3,0-4-0.4-5-1.1
		c-1-0.8-1.5-1.9-1.5-3.4c0-0.4,0-0.8,0.1-1.2c0.1-0.4,0.1-0.8,0.2-1.3l2.3-9.9h-2.8l1-4.4h2.8l1.4-6h6.7l-1.4,6h6.3l-1,4.4h-6.3
		l-1.7,7.5c-0.1,0.5-0.2,1-0.4,1.6c-0.1,0.5-0.2,1-0.2,1.4C-127.4,637.4-127.2,637.9-126.8,638.2z M-95.3,631.1
		c-0.2,0.8-0.4,1.6-0.7,2.4h-15.6c0,0.1,0,0.1,0,0.2c0,0.1,0,0.1,0,0.2c0,1.5,0.5,2.6,1.5,3.4c1,0.8,2.6,1.2,4.7,1.2
		c1.5,0,2.9-0.2,4.2-0.7s2.5-1,3.4-1.7h0.7l-1.2,5.4c-1.3,0.6-2.7,1-4.1,1.3c-1.4,0.3-3,0.4-4.6,0.4c-3.6,0-6.3-0.8-8.3-2.4
		c-1.9-1.6-2.9-3.8-2.9-6.5c0-1.9,0.3-3.6,0.9-5.2c0.6-1.6,1.5-3,2.7-4.2c1.1-1.2,2.6-2.1,4.3-2.8c1.7-0.7,3.6-1,5.6-1
		c3.1,0,5.5,0.6,7.1,1.9c1.6,1.3,2.4,3.1,2.4,5.6C-95,629.4-95.1,630.2-95.3,631.1z"/>
</g>
</svg>
